# xmcd
# 
# Track frame offsets:
#     150
#     11500
#     35150
#     47925
#     58375
#     80150
#     95800
#     112162
#     124062
#     144112
#     155875
#     176400
# 
# Disc length: 2612
# 
# Revision: 1
# Processed by: cddbd v1.5.2PL0 Copyright (c) Steve Scherf et al.
# Submitted via: BonkEnc v1.0beta4
# 
DISCID=b20a320c
DTITLE=Ambros, Wolfgang - Gö Da Schaust CD 2 Von 2
DYEAR=1997
DGENRE=Deutsch
TTITLE0=Wüst Oda Wüst Ned
TTITLE1=Denk Ned Noch
TTITLE2=Sei So Frei
TTITLE3=Die Gailtalerin
TTITLE4=Espresso
TTITLE5=Baba Und Foi Ned
TTITLE6=Aufi, Aufi
TTITLE7=Des Kannst Ned Mach'n
TTITLE8=Zwa Wia Mia Zwa
TTITLE9=Machtwuat
TTITLE10=Du Bist Wia De Wintasunn
TTITLE11=Da Hofa
EXTD=
EXTT0=
EXTT1=
EXTT2=
EXTT3=
EXTT4=
EXTT5=
EXTT6=
EXTT7=
EXTT8=
EXTT9=
EXTT10=
EXTT11=
PLAYORDER=
